<svg xmlns="http://www.w3.org/2000/svg" viewBox="0 0 100 100" width="100" height="100">
  <!-- Fondo -->
  <circle cx="50" cy="50" r="48" fill="#EEF2FF" stroke="#818CF8" stroke-width="1.5"/>
  <!-- Cuerpo hoodie -->
  <ellipse cx="50" cy="78" rx="22" ry="16" fill="#4F46E5"/>
  <rect x="36" y="57" width="28" height="23" rx="3" fill="#4F46E5"/>
  <!-- Bolsillo canguro -->
  <path d="M40 68 Q50 65 60 68 L60 78 L40 78 Z" fill="#4338CA"/>
  <!-- Capucha -->
  <path d="M36 57 Q34 50 38 46" stroke="#4338CA" stroke-width="2" fill="none"/>
  <path d="M64 57 Q66 50 62 46" stroke="#4338CA" stroke-width="2" fill="none"/>
  <!-- Cabeza -->
  <circle cx="50" cy="37" r="15" fill="#FDDBB4"/>
  <!-- Cabello despeinado tech -->
  <ellipse cx="50" cy="24" rx="15" ry="8" fill="#1F2937"/>
  <path d="M35 27 Q37 20 42 22" stroke="#1F2937" stroke-width="3" fill="none" stroke-linecap="round"/>
  <path d="M38 23 Q41 17 46 20" stroke="#1F2937" stroke-width="3" fill="none" stroke-linecap="round"/>
  <path d="M47 21 Q50 15 54 19" stroke="#1F2937" stroke-width="3" fill="none" stroke-linecap="round"/>
  <!-- Lentes geek -->
  <rect x="38" y="33" width="10" height="8" rx="3" fill="none" stroke="#374151" stroke-width="1.5"/>
  <rect x="52" y="33" width="10" height="8" rx="3" fill="none" stroke="#374151" stroke-width="1.5"/>
  <line x1="48" y1="37" x2="52" y2="37" stroke="#374151" stroke-width="1.2"/>
  <line x1="34" y1="37" x2="38" y2="37" stroke="#374151" stroke-width="1.2"/>
  <line x1="62" y1="37" x2="65" y2="37" stroke="#374151" stroke-width="1.2"/>
  <!-- Ojos detrás de lentes -->
  <circle cx="43" cy="37" r="2.5" fill="#1F2937"/>
  <circle cx="57" cy="37" r="2.5" fill="#1F2937"/>
  <circle cx="44" cy="36" r="0.8" fill="white"/>
  <circle cx="58" cy="36" r="0.8" fill="white"/>
  <!-- Sonrisa tech nerd -->
  <path d="M44 44 Q50 48 56 44" stroke="#C0847A" stroke-width="1.5" fill="none" stroke-linecap="round"/>
  <!-- Mejillas -->
  <ellipse cx="39" cy="42" rx="3.5" ry="2" fill="#F4A89A" opacity="0.5"/>
  <ellipse cx="61" cy="42" rx="3.5" ry="2" fill="#F4A89A" opacity="0.5"/>
  <!-- Laptop pequeña -->
  <rect x="28" y="69" width="14" height="9" rx="1" fill="#1F2937"/>
  <rect x="29" y="70" width="12" height="7" rx="0.5" fill="#10B981"/>
  <rect x="26" y="78" width="18" height="2" rx="1" fill="#374151"/>
  <!-- Código en pantalla -->
  <line x1="30" y1="72" x2="38" y2="72" stroke="#34D399" stroke-width="0.8"/>
  <line x1="30" y1="74" x2="35" y2="74" stroke="#34D399" stroke-width="0.8"/>
  <line x1="30" y1="76" x2="37" y2="76" stroke="#34D399" stroke-width="0.8"/>
</svg>
