<svg xmlns="http://www.w3.org/2000/svg" viewBox="0 0 100 100" width="100" height="100">
  <!-- Fondo -->
  <circle cx="50" cy="50" r="48" fill="#EBF4FF" stroke="#378ADD" stroke-width="1.5"/>
  <!-- Cuerpo con traje -->
  <ellipse cx="50" cy="78" rx="22" ry="16" fill="#1E3A8A"/>
  <rect x="38" y="58" width="24" height="22" rx="3" fill="#1E3A8A"/>
  <!-- Camisa blanca -->
  <rect x="44" y="58" width="12" height="22" fill="#FFFFFF"/>
  <!-- Corbata -->
  <polygon points="50,60 47,64 50,78 53,64" fill="#EF4444"/>
  <polygon points="47,60 53,60 52,63 48,63" fill="#DC2626"/>
  <!-- Cuello -->
  <path d="M44 58 L50 63 L56 58" stroke="#E5E7EB" stroke-width="1" fill="none"/>
  <!-- Cabeza -->
  <circle cx="50" cy="38" r="16" fill="#FDDBB4"/>
  <!-- Cabello -->
  <ellipse cx="50" cy="25" rx="16" ry="8" fill="#1F2937"/>
  <ellipse cx="34" cy="30" rx="4" ry="7" fill="#1F2937"/>
  <ellipse cx="66" cy="30" rx="4" ry="7" fill="#1F2937"/>
  <!-- Ojos -->
  <circle cx="44" cy="37" r="3.5" fill="white"/>
  <circle cx="56" cy="37" r="3.5" fill="white"/>
  <circle cx="44" cy="37" r="2" fill="#1F2937"/>
  <circle cx="56" cy="37" r="2" fill="#1F2937"/>
  <circle cx="45" cy="36" r="0.8" fill="white"/>
  <circle cx="57" cy="36" r="0.8" fill="white"/>
  <!-- Cejas -->
  <path d="M41 33 Q44 31 47 33" stroke="#1F2937" stroke-width="1.5" fill="none" stroke-linecap="round"/>
  <path d="M53 33 Q56 31 59 33" stroke="#1F2937" stroke-width="1.5" fill="none" stroke-linecap="round"/>
  <!-- Sonrisa -->
  <path d="M44 43 Q50 48 56 43" stroke="#C0847A" stroke-width="1.5" fill="none" stroke-linecap="round"/>
  <!-- Mejillas -->
  <ellipse cx="40" cy="41" rx="4" ry="2" fill="#F4A89A" opacity="0.6"/>
  <ellipse cx="60" cy="41" rx="4" ry="2" fill="#F4A89A" opacity="0.6"/>
  <!-- Maletín -->
  <rect x="66" y="65" width="16" height="11" rx="2" fill="#92400E" stroke="#78350F" stroke-width="0.8"/>
  <rect x="70" y="62" width="8" height="4" rx="2" fill="none" stroke="#78350F" stroke-width="1.2"/>
  <line x1="66" y1="70" x2="82" y2="70" stroke="#78350F" stroke-width="0.8"/>
  <rect x="72" y="69" width="4" height="3" rx="0.5" fill="#FCD34D"/>
</svg>
