<svg xmlns="http://www.w3.org/2000/svg" viewBox="0 0 100 100" width="100" height="100">
  <!-- Fondo -->
  <circle cx="50" cy="50" r="48" fill="#F0FDF4" stroke="#4ADE80" stroke-width="1.5"/>
  <!-- Burbujitas decorativas -->
  <circle cx="18" cy="25" r="5" fill="none" stroke="#86EFAC" stroke-width="1"/>
  <circle cx="82" cy="72" r="4" fill="none" stroke="#86EFAC" stroke-width="1"/>
  <circle cx="80" cy="25" r="3" fill="none" stroke="#86EFAC" stroke-width="1"/>
  <!-- Cuerpo con bata de laboratorio -->
  <ellipse cx="50" cy="78" rx="22" ry="15" fill="#FFFFFF"/>
  <rect x="34" y="57" width="32" height="23" rx="3" fill="#FFFFFF" stroke="#E5E7EB" stroke-width="0.8"/>
  <!-- Botones bata -->
  <circle cx="50" cy="61" r="1.2" fill="#D1D5DB"/>
  <circle cx="50" cy="66" r="1.2" fill="#D1D5DB"/>
  <circle cx="50" cy="71" r="1.2" fill="#D1D5DB"/>
  <!-- Bolsillo con bolígrafos -->
  <rect x="36" y="61" width="10" height="8" rx="1" fill="#F9FAFB" stroke="#E5E7EB" stroke-width="0.5"/>
  <line x1="38" y1="61" x2="38" y2="56" stroke="#3B82F6" stroke-width="1.5" stroke-linecap="round"/>
  <line x1="40" y1="61" x2="40" y2="57" stroke="#EF4444" stroke-width="1.5" stroke-linecap="round"/>
  <line x1="42" y1="61" x2="42" y2="56" stroke="#1F2937" stroke-width="1.5" stroke-linecap="round"/>
  <!-- Cabeza -->
  <circle cx="50" cy="37" r="15" fill="#FDDBB4"/>
  <!-- Cabello científico loco -->
  <path d="M35 30 Q36 20 50 18 Q64 20 65 30" fill="#9CA3AF"/>
  <path d="M35 28 Q30 18 36 14" stroke="#9CA3AF" stroke-width="3.5" fill="none" stroke-linecap="round"/>
  <path d="M38 24 Q34 13 40 11" stroke="#9CA3AF" stroke-width="3" fill="none" stroke-linecap="round"/>
  <path d="M65 28 Q70 18 64 14" stroke="#9CA3AF" stroke-width="3.5" fill="none" stroke-linecap="round"/>
  <path d="M62 24 Q66 13 60 11" stroke="#9CA3AF" stroke-width="3" fill="none" stroke-linecap="round"/>
  <!-- Lentes redondos de científico -->
  <circle cx="43" cy="36" r="5" fill="none" stroke="#374151" stroke-width="1.5"/>
  <circle cx="57" cy="36" r="5" fill="none" stroke="#374151" stroke-width="1.5"/>
  <line x1="48" y1="36" x2="52" y2="36" stroke="#374151" stroke-width="1.2"/>
  <line x1="34" y1="36" x2="38" y2="36" stroke="#374151" stroke-width="1.2"/>
  <line x1="62" y1="36" x2="65" y2="36" stroke="#374151" stroke-width="1.2"/>
  <!-- Ojos dentro lentes -->
  <circle cx="43" cy="36" r="2.5" fill="#1E3A8A"/>
  <circle cx="57" cy="36" r="2.5" fill="#1E3A8A"/>
  <circle cx="44" cy="35" r="0.8" fill="white"/>
  <circle cx="58" cy="35" r="0.8" fill="white"/>
  <!-- Sonrisa inteligente -->
  <path d="M44 43 Q50 47 56 43" stroke="#C0847A" stroke-width="1.5" fill="none" stroke-linecap="round"/>
  <!-- Mejillas -->
  <ellipse cx="38" cy="41" rx="3.5" ry="2" fill="#F4A89A" opacity="0.5"/>
  <ellipse cx="62" cy="41" rx="3.5" ry="2" fill="#F4A89A" opacity="0.5"/>
  <!-- Tubo de ensayo -->
  <rect x="66" y="60" width="6" height="16" rx="3" fill="none" stroke="#6B7280" stroke-width="1.5"/>
  <rect x="67" y="67" width="4" height="9" rx="2" fill="#86EFAC" opacity="0.7"/>
  <ellipse cx="69" cy="60" rx="3" ry="1.5" fill="none" stroke="#6B7280" stroke-width="1.5"/>
  <!-- Burbujas en el tubo -->
  <circle cx="69" cy="70" r="1" fill="white" opacity="0.8"/>
  <circle cx="68" cy="73" r="0.8" fill="white" opacity="0.8"/>
</svg>
