<svg xmlns="http://www.w3.org/2000/svg" viewBox="0 0 100 100" width="100" height="100">
  <!-- Fondo -->
  <circle cx="50" cy="50" r="48" fill="#FDF4FF" stroke="#C084FC" stroke-width="1.5"/>
  <!-- Salpicaduras de pintura decorativas -->
  <circle cx="18" cy="22" r="4" fill="#F472B6" opacity="0.4"/>
  <circle cx="82" cy="18" r="3" fill="#60A5FA" opacity="0.4"/>
  <circle cx="15" cy="75" r="3" fill="#34D399" opacity="0.4"/>
  <circle cx="85" cy="78" r="4" fill="#FBBF24" opacity="0.4"/>
  <!-- Cuerpo con bata artista -->
  <ellipse cx="50" cy="78" rx="22" ry="15" fill="#7C3AED"/>
  <rect x="35" y="57" width="30" height="23" rx="3" fill="#7C3AED"/>
  <!-- Manchas de pintura en la bata -->
  <circle cx="40" cy="65" r="3" fill="#F472B6" opacity="0.7"/>
  <circle cx="55" cy="68" r="2.5" fill="#60A5FA" opacity="0.7"/>
  <circle cx="47" cy="72" r="2" fill="#34D399" opacity="0.7"/>
  <circle cx="60" cy="62" r="2" fill="#FBBF24" opacity="0.7"/>
  <!-- Boina artista -->
  <ellipse cx="50" cy="26" rx="17" ry="6" fill="#4C1D95"/>
  <ellipse cx="50" cy="22" rx="13" ry="9" fill="#6D28D9"/>
  <circle cx="58" cy="20" r="2.5" fill="#8B5CF6"/>
  <!-- Cabeza -->
  <circle cx="50" cy="37" r="15" fill="#FDDBB4"/>
  <!-- Cabello artístico -->
  <path d="M35 30 Q38 22 50 20 Q62 22 65 30" fill="#7C2D12" stroke="none"/>
  <path d="M35 30 Q32 25 36 22" stroke="#7C2D12" stroke-width="3" fill="none" stroke-linecap="round"/>
  <path d="M65 30 Q68 25 64 22" stroke="#7C2D12" stroke-width="3" fill="none" stroke-linecap="round"/>
  <!-- Ojos expresivos -->
  <circle cx="44" cy="36" r="3.5" fill="white"/>
  <circle cx="56" cy="36" r="3.5" fill="white"/>
  <circle cx="44" cy="36" r="2.2" fill="#4C1D95"/>
  <circle cx="56" cy="36" r="2.2" fill="#4C1D95"/>
  <circle cx="45" cy="35" r="0.9" fill="white"/>
  <circle cx="57" cy="35" r="0.9" fill="white"/>
  <!-- Cejas artísticas -->
  <path d="M40 32 Q44 30 47 32" stroke="#4B3728" stroke-width="1.8" fill="none" stroke-linecap="round"/>
  <path d="M53 32 Q56 30 60 32" stroke="#4B3728" stroke-width="1.8" fill="none" stroke-linecap="round"/>
  <!-- Sonrisa creativa -->
  <path d="M43 43 Q50 48 57 43" stroke="#C0847A" stroke-width="1.8" fill="none" stroke-linecap="round"/>
  <!-- Mejillas -->
  <ellipse cx="39" cy="41" rx="4" ry="2" fill="#F4A89A" opacity="0.6"/>
  <ellipse cx="61" cy="41" rx="4" ry="2" fill="#F4A89A" opacity="0.6"/>
  <!-- Paleta de pintor -->
  <ellipse cx="72" cy="70" rx="9" ry="7" fill="#92400E" opacity="0.9"/>
  <circle cx="68" cy="67" r="2" fill="#EF4444"/>
  <circle cx="73" cy="65" r="2" fill="#60A5FA"/>
  <circle cx="77" cy="68" r="2" fill="#34D399"/>
  <circle cx="75" cy="73" r="2" fill="#FBBF24"/>
  <ellipse cx="70" cy="72" rx="3" ry="2" fill="#8B5CF6"/>
  <!-- Pincel -->
  <line x1="64" y1="62" x2="75" y2="58" stroke="#92400E" stroke-width="1.5" stroke-linecap="round"/>
  <ellipse cx="75" cy="57" rx="2" ry="3" fill="#F472B6" transform="rotate(-30 75 57)"/>
</svg>
